<svg id="Layer_1" data-name="Layer 1" xmlns="http://www.w3.org/2000/svg" xmlns:xlink="http://www.w3.org/1999/xlink" viewBox="0 0 489.66 181.13"><defs><style>.cls-1{fill:#fff;}.cls-2{fill:url(#linear-gradient);}.cls-3{fill:url(#linear-gradient-2);}.cls-4{fill:url(#linear-gradient-3);}.cls-5{fill:url(#linear-gradient-4);}.cls-6{fill:url(#linear-gradient-5);}.cls-7{fill:url(#linear-gradient-6);}.cls-8{fill:url(#linear-gradient-7);}.cls-9{fill:url(#linear-gradient-8);}.cls-10,.cls-11,.cls-12{fill-rule:evenodd;}.cls-10{fill:url(#linear-gradient-9);}.cls-11{fill:url(#linear-gradient-10);}.cls-12{fill:url(#linear-gradient-11);}</style><linearGradient id="linear-gradient" x1="330.47" y1="184.53" x2="330.47" y2="33.71" gradientUnits="userSpaceOnUse"><stop offset="0.29" stop-color="#076286"/><stop offset="1" stop-color="#003147"/></linearGradient><linearGradient id="linear-gradient-2" x1="312.19" y1="184.53" x2="312.19" y2="33.71" xlink:href="#linear-gradient"/><linearGradient id="linear-gradient-3" x1="347.27" y1="184.53" x2="347.27" y2="33.71" xlink:href="#linear-gradient"/><linearGradient id="linear-gradient-4" x1="336.38" y1="184.53" x2="336.38" y2="33.71" xlink:href="#linear-gradient"/><linearGradient id="linear-gradient-5" x1="474.66" y1="184.53" x2="474.66" y2="33.71" xlink:href="#linear-gradient"/><linearGradient id="linear-gradient-6" x1="492.94" y1="184.53" x2="492.94" y2="33.71" xlink:href="#linear-gradient"/><linearGradient id="linear-gradient-7" x1="457.86" y1="184.53" x2="457.86" y2="33.71" xlink:href="#linear-gradient"/><linearGradient id="linear-gradient-8" x1="468.76" y1="184.53" x2="468.76" y2="33.71" xlink:href="#linear-gradient"/><linearGradient id="linear-gradient-9" x1="402.45" y1="184.53" x2="402.45" y2="33.71" xlink:href="#linear-gradient"/><linearGradient id="linear-gradient-10" x1="402.41" y1="184.53" x2="402.41" y2="33.71" xlink:href="#linear-gradient"/><linearGradient id="linear-gradient-11" x1="402.41" y1="187.3" x2="402.41" y2="87.5" xlink:href="#linear-gradient"/></defs><title>logo</title><path class="cls-1" d="M351.46,259.19s-4.09-1-6.38-3.34l-15.46-20.78,1.18-.37a31,31,0,0,0,5.64-2.39,20,20,0,0,0,4.9-3.77,17.65,17.65,0,0,0,3.51-5.49,20.5,20.5,0,0,0,1.43-7.54c.06-5.72-1.37-10.06-4.26-12.87a24.56,24.56,0,0,0-10.52-6.09,46.49,46.49,0,0,0-12.44-1.81c-4.26,0-10.55,0-12.83,0h-10.5v40.22l11.62,24.26V205h15.34a14.45,14.45,0,0,1,5.16,1.1,10.08,10.08,0,0,1,3.72,3.13,10.48,10.48,0,0,1,1.72,6.42c0,2.83-.61,5-1.83,6.53a10.68,10.68,0,0,1-3.89,3.14,14.76,14.76,0,0,1-5.48,1l-12.51,0,24.06,32.86h17.82Z" transform="translate(-151.09 -78.07)"/><path class="cls-1" d="M462,259.19s-4.52-1.13-6.73-3.65L440,235.07l1.18-.37a30.67,30.67,0,0,0,5.64-2.39,19.8,19.8,0,0,0,4.9-3.77,17.65,17.65,0,0,0,3.51-5.49,20.5,20.5,0,0,0,1.44-7.54c.05-5.72-1.38-10.06-4.27-12.87a24.5,24.5,0,0,0-10.52-6.09,46.49,46.49,0,0,0-12.44-1.81c-4.26,0-10.55,0-12.83,0h-10.5v64.48h18.26s-4.41-1.12-6.64-3.61V205h15.34a14.45,14.45,0,0,1,5.16,1.1,10,10,0,0,1,3.72,3.13,10.48,10.48,0,0,1,1.72,6.42c0,2.83-.61,5-1.83,6.53a10.68,10.68,0,0,1-3.89,3.14,14.76,14.76,0,0,1-5.48,1l-12.51,0,24.06,32.86H462Z" transform="translate(-151.09 -78.07)"/><path class="cls-1" d="M399.24,205.14v-10.4H353.77v64.4h18.59s-4.25-1.09-6.51-3.48V234.44h29.77l.42.59-6.72-14a3.57,3.57,0,0,1-1,2.88H365.89V205.14Z" transform="translate(-151.09 -78.07)"/><path class="cls-1" d="M299.13,259.18l-33.57-63.6-32.48,63.6h21.49s-4.46-1.13-6.68-3.65l17.66-36.34,17.5,36.36c-2.22,2.5-6.66,3.63-6.66,3.63h22.74Z" transform="translate(-151.09 -78.07)"/><path class="cls-1" d="M510.29,259.18l-33.57-63.6-22,43.13,7.7,10.46,14.27-30,17.55,36.47c-2.25,2.42-6.55,3.52-6.55,3.52h22.58Z" transform="translate(-151.09 -78.07)"/><path class="cls-1" d="M553.18,195.6l-19.41,36.33-19.55-36.32-13.7,24.61,6,14.32,6.7-14.42,20.24,38L553.73,220l17,35.57c-2.24,2.46-6.6,3.57-6.6,3.57h22.5Z" transform="translate(-151.09 -78.07)"/><path class="cls-1" d="M249.48,194.74h-16.4s4.42,1.13,6.64,3.61l-16.51,35.27-20.15-37.89-20.25,38-16.88-35.39c2.22-2.49,6.65-3.62,6.65-3.62H151.09l33.32,63.32,18.32-36.2L222.19,258l32.52-63.3Z" transform="translate(-151.09 -78.07)"/><path class="cls-1" d="M640.75,204.91V194.65h-55a16.85,16.85,0,0,1,6,3v61.52h49v-10H604.27V232.07h23.12a3.69,3.69,0,0,1,.91,2.82l6.58-13.52-.36.49H604v-17Z" transform="translate(-151.09 -78.07)"/><path class="cls-2" d="M343.51,181.89c-7.24-8.15-14-29.68-14-29.68h0a127.33,127.33,0,0,1,16.27-8.89,64.93,64.93,0,0,1-2.31-9.23,94,94,0,0,1-9.1,4.86c-15.14,7.52-23.11,3.89-23.11,3.89l1.85.91c2.75,1.66,7.94,6.56,11.87,16.09l11.12,23.58.14.14,13.36,2.74A20.52,20.52,0,0,1,343.51,181.89Z" transform="translate(-151.09 -78.07)"/><path class="cls-3" d="M313.09,143.71l-1.79-.87A10.91,10.91,0,0,1,313.09,143.71Z" transform="translate(-151.09 -78.07)"/><path class="cls-4" d="M355.61,176.33c-4.17-4.69-9.23-16.92-9.23-16.92s2.33-1.37,5.66-3c-1.15-1.44-2.2-2.89-3.14-4.33-8.5,4.12-12.94,2.26-12.94,2.26l.87.39c1.26.76,3.78,3,6.76,9.39l6.05,12.53c.1.11.22.21.33.32l8.61,2A18.76,18.76,0,0,1,355.61,176.33Z" transform="translate(-151.09 -78.07)"/><path class="cls-5" d="M336.79,154.7l-.83-.37A3.07,3.07,0,0,1,336.79,154.7Z" transform="translate(-151.09 -78.07)"/><path class="cls-6" d="M493.83,142.84s-8,3.63-23.11-3.89a94,94,0,0,1-9.1-4.86,64.93,64.93,0,0,1-2.31,9.23,127.33,127.33,0,0,1,16.27,8.89h0s-6.72,21.53-14,29.68a20.52,20.52,0,0,1-6.13,4.41l13.36-2.74.14-.14,11.13-23.58c3.92-9.53,9.11-14.43,11.86-16.09Z" transform="translate(-151.09 -78.07)"/><path class="cls-7" d="M492,143.71l1.79-.87A10.91,10.91,0,0,0,492,143.71Z" transform="translate(-151.09 -78.07)"/><path class="cls-8" d="M469.17,154.33s-4.44,1.86-12.94-2.26c-.94,1.44-2,2.89-3.14,4.33,3.33,1.64,5.66,3,5.66,3s-5.06,12.23-9.23,16.92a18.76,18.76,0,0,1-3,2.6l8.61-2c.11-.11.23-.21.33-.32l6.05-12.53c3-6.4,5.5-8.63,6.76-9.39Z" transform="translate(-151.09 -78.07)"/><path class="cls-9" d="M468.34,154.7l.83-.37A3.07,3.07,0,0,0,468.34,154.7Z" transform="translate(-151.09 -78.07)"/><path class="cls-10" d="M454.06,120.8s-50.47-25.14-51.61-42.73v0c-1.14,17.58-51.6,42.73-51.6,42.73s-6.08,27.48,17,49.67l.6-.27c-12.48-13.4-15.88-28.32-6.05-38.48L402.44,108s0-.08,0-.21V108l40.06,23.7c9.83,10.16,6.43,25.08-6.05,38.47l.6.27C460.13,148.28,454.06,120.8,454.06,120.8Z" transform="translate(-151.09 -78.07)"/><path class="cls-11" d="M436.24,143.82s-32.67-16.28-33.81-27.8a1.62,1.62,0,0,1,0-.22s0,0,0,.08,0-.06,0-.08V116c-1.15,11.52-33.82,27.8-33.82,27.8a36.3,36.3,0,0,0,11.15,32.27l.39-.18c-8.18-8.78-10.42-18.57-4-25.24l26.27-15.53,26.26,15.53c6.45,6.67,4.22,16.46-4,25.24l.4.18A36.28,36.28,0,0,0,436.24,143.82Z" transform="translate(-151.09 -78.07)"/><path class="cls-12" d="M424.8,160.37s-21.62-10.78-22.38-18.4a.76.76,0,0,0,0-.15v.05a.43.43,0,0,1,0-.05.76.76,0,0,1,0,.15c-.75,7.62-22.37,18.4-22.37,18.4a24,24,0,0,0,7.37,21.35l.26-.12c-5.41-5.81-6.89-12.29-2.62-16.7l17.38-10.28,17.38,10.28c4.26,4.41,2.79,10.89-2.63,16.7l.26.12A24,24,0,0,0,424.8,160.37Z" transform="translate(-151.09 -78.07)"/></svg>